<svg xmlns="http://www.w3.org/2000/svg" xmlns:xlink="http://www.w3.org/1999/xlink" data-name="Layer 1" width="626.68903" height="639.13846" viewBox="0 0 626.68903 639.13846"><path d="M797.61494,201.84456c3.63249-24.05881-22.62686-45.89094-46.60741-41.77334s-41.11067,28.67486-41.39953,53.00463c-.33733,28.41119,18.05043,55.72225,12.72474,83.63188-10.19,53.40135-95.30425,65.49965-104.41989,119.09485-4.127,24.26477,11.02954,49.17348,32.55562,61.10827s47.92088,12.47656,71.817,6.5786,45.85522-17.70577,67.39139-29.62236c26.96588-14.921,54.06246-30.43924,76.12318-51.95945,24.75294-24.14647,42.56779-56.08483,46.67534-90.41976s-6.38677-70.8365-30.58645-95.53741-62.31765-35.921-95.20615-25.23891" transform="translate(-286.65549 -130.43077)" fill="#ff8c37"/><path fill="#fff" d="M879.74556,769.56923c-163.39326-203.97044-214.44235-29.86731-389.41716-28.374-40.42233-5.88413-73.55418-36.946-115.34988-37.62677-39.446-2.89414-82.14275,22.55005-88.323,63.31312,10.50522-49.0683,69.85268-68.34248,113.5357-51.586C615.04561,853.49618,679.28045,538.41345,879.74556,769.56923Z" transform="translate(-286.65549 -130.43077)"/><path fill="#fff" d="M575.69771,467.661c49.2764,61.74663,106.15451,138.52355,79.88488,220.65917C697.67272,608.65937,637.71928,515.6926,575.69771,467.661Z" transform="translate(-286.65549 -130.43077)"/><path fill="#fff" d="M850.98678,244.0873c2.72675,293.65592-173.7936,175.09839-151.92625,423.96458,9.12344-49.95413-4.19894-116.17092,39.9162-152.46114C831.005,459.03868,867.35363,346.86994,850.98678,244.0873Z" transform="translate(-286.65549 -130.43077)"/><path fill="#fff" d="M855.03023,243.62294C877.09,145.62286,706.66343,81.7962,668.49932,178.111c18.0945,155.67514-94.63159,140.99284-105.97459,261.08021,2.00477,39.71331,27.55145,78.9014,65.55138,92.14176-37.32561-15.43287-61.18438-57.20026-59.10691-97.40778,14.52814-94.07681,138.24472-123.05328,108.67243-236.71637C690.44239,90.10081,873.76907,148.126,855.03023,243.62294Z" transform="translate(-286.65549 -130.43077)"/><path fill="#fff" d="M569.706,301.98769c26.96471,29.021,37.46554,71.77907,68.50674,98.85969C621.121,369.18918,607.43484,316.09231,569.706,301.98769Z" transform="translate(-286.65549 -130.43077)"/><path fill="#fff" d="M614.976,295.47939c-12.94915,9.025-11.896,18.40787-8.00058,32.371C615.249,320.50643,619.87959,305.73605,614.976,295.47939Z" transform="translate(-286.65549 -130.43077)"/><path fill="#fff" d="M558.86519,333.04921c9.208,12.07818,16.8636,9.77071,30.04041,5.6681C582.27336,330.66584,567.82233,327.006,558.86519,333.04921Z" transform="translate(-286.65549 -130.43077)"/><path fill="#fff" d="M598.58638,267.41835c-10.84746,8.03924-3.74972,12.22815,1.59138,20.12625C606.43574,282.47678,606.10241,271.46076,598.58638,267.41835Z" transform="translate(-286.65549 -130.43077)"/><path fill="#fff" d="M547.44332,306.74648c2.80661,13.86606,11.66205,13.101,22.90672,8.56841C565.72115,308.225,556.38521,303.92617,547.44332,306.74648Z" transform="translate(-286.65549 -130.43077)"/><path fill="#fff" d="M561.58053,274.21767c-6.67252,10.98533,1.24184,10.52784,10.5757,9.59021C573.20845,278.18642,569.37789,273.723,561.58053,274.21767Z" transform="translate(-286.65549 -130.43077)"/><path fill="#fff" d="M743.36861,454.14638c-12.16281-4.49011-11.02165,3.29584-8.861,12.79C740.54781,466.83486,744.79879,461.995,743.36861,454.14638Z" transform="translate(-286.65549 -130.43077)"/><path fill="#fff" d="M795.24068,372.72548c-14.24939,9.185-15.46691,19.44282-15.49024,35.41491C790.39527,401.46523,798.76093,385.02989,795.24068,372.72548Z" transform="translate(-286.65549 -130.43077)"/><path fill="#fff" d="M806.788,297.78212c-12.6483,8.12063-10.343,17.95755-2.929,29.11046C809.72359,318.96816,811.7109,306.79579,806.788,297.78212Z" transform="translate(-286.65549 -130.43077)"/><path fill="#fff" d="M788.50386,206.49013c-7.469,13.44888-2.52978,19.81523,6.06244,30.96939C799.73363,228.07453,797.69226,212.68,788.50386,206.49013Z" transform="translate(-286.65549 -130.43077)"/><path fill="#fff" d="M732.05513,215.91152c-9.60809,10.25646-3.72425,16.75751,6.498,22.99564C741.57857,231.17031,739.583,221.3329,732.05513,215.91152Z" transform="translate(-286.65549 -130.43077)"/><path fill="#fff" d="M724.90523,269.64833c-14.8985,6.38691-16.40189,18.05779-12.62176,32.44886C720.74361,294.29726,726.7773,280.88515,724.90523,269.64833Z" transform="translate(-286.65549 -130.43077)"/><path fill="#fff" d="M753.646,314.36367c-13.12968,7.13063-11.53648,14.66164-9.00708,27.88828C753.28788,337.01861,758.526,323.6623,753.646,314.36367Z" transform="translate(-286.65549 -130.43077)"/><path fill="#fff" d="M725.28951,375.225c-16.05069,6.26354-19.62946,18.94135-17.8063,34.90612C717.34664,401.94081,725.54732,387.54286,725.28951,375.225Z" transform="translate(-286.65549 -130.43077)"/><path fill="#fff" d="M633.542,443.141c-3.46673,14.2986,4.97011,19.00051,17.74682,21.163C650.06246,455.00527,643.184,445.62343,633.542,443.141Z" transform="translate(-286.65549 -130.43077)"/><path fill="#fff" d="M671.16011,386.788c-11.967,8.93983-8.82492,18.40478-.55642,28.78024C675.80318,407.35585,676.79586,395.265,671.16011,386.788Z" transform="translate(-286.65549 -130.43077)"/><path fill="#fff" d="M682.89254,323.60048c-9.608,10.257-3.72431,16.75731,6.498,22.99565C692.416,338.85976,690.42086,329.02187,682.89254,323.60048Z" transform="translate(-286.65549 -130.43077)"/><path fill="#fff" d="M612.97408,426.52822c-7.43419,12.10466-.478,17.75886,10.86363,22.28933C625.31148,440.38124,621.436,430.70449,612.97408,426.52822Z" transform="translate(-286.65549 -130.43077)"/><path fill="#fff" d="M767.44576,562.25527c9.29424,34.08766,10.86763,71.00594-.11226,104.84625C792.126,639.56826,793.63168,588.93573,767.44576,562.25527Z" transform="translate(-286.65549 -130.43077)"/><path fill="#fff" d="M827.50826,550.79579c-4.45132,27.27915-15.25515,54.31253-35.23785,73.90182C821.53529,617.11039,841.83345,578.03073,827.50826,550.79579Z" transform="translate(-286.65549 -130.43077)"/><path fill="#fff" d="M765.06588,606.63515c2.746-12.41936-4.22566-8.25781-11.85124-3.746C753.8608,608.1249,758.42867,610.32558,765.06588,606.63515Z" transform="translate(-286.65549 -130.43077)"/><path fill="#fff" d="M742.50631,546.1996c-8.661,11.682-1.74735,19.74708,10.121,24.18288C753.65051,561.31068,750.16544,551.77349,742.50631,546.1996Z" transform="translate(-286.65549 -130.43077)"/><path fill="#fff" d="M781.16353,527.17177c-13.77873.45947-14.34621,14.24972-5.164,21.758C781.01345,542.3831,782.50129,535.71169,781.16353,527.17177Z" transform="translate(-286.65549 -130.43077)"/><path fill="#fff" d="M795.41988,553.05068c-12.52484-.46494-4.84909,4.03645,1.57063,8.35537C801.31929,560.42177,801.37789,557.122,795.41988,553.05068Z" transform="translate(-286.65549 -130.43077)"/><path fill="#fff" d="M813.50484,545.87831c-12.26354,6.22649-8.225,13.59228-.40246,21.98045A16.98538,16.98538,0,0,0,813.50484,545.87831Z" transform="translate(-286.65549 -130.43077)"/><path fill="#fff" d="M851.53609,529.65566c-9.587-8.25513-8.42786-.03663-7.47222,8.44125C848.70406,539.99355,852.22017,537.09462,851.53609,529.65566Z" transform="translate(-286.65549 -130.43077)"/><path fill="#fff" d="M863.21724,569.40566c-11.00311-6.98294-11.95761.82123-12.19123,10.74629C857.13131,581.33242,862.6484,577.45693,863.21724,569.40566Z" transform="translate(-286.65549 -130.43077)"/><path fill="#fff" d="M851.51217,609.11318c-4.41649-11.8015-6.75063-3.63289-9.364,4.18156C845.09273,617.0746,849.06783,616.06581,851.51217,609.11318Z" transform="translate(-286.65549 -130.43077)"/><path fill="#fff" d="M389.91231,246.48769c163.15118-72.54812,64.35284,194.37917-9.05618,45.21775-7.66924-21.174,4.08182-49.84963,28.42164-52.47456-51.64311,5.75025-40.1599,77.09837-6.24046,99.64154C525.53246,388.6626,514.93079,160.36024,389.91231,246.48769Z" transform="translate(-286.65549 -130.43077)"/><path fill="#fff" d="M358.35347,522.57558c-8.88482,57.12231-.59629,116.89733,19.47666,170.24966C372.422,642.53978,365.84465,570.73368,358.35347,522.57558Z" transform="translate(-286.65549 -130.43077)"/><path fill="#fff" d="M461.65719,432.17714c-38.58279,20.4454-69.90043,51.08249-94.5298,86.37338C400.16427,495.26015,440.78975,459.17861,461.65719,432.17714Z" transform="translate(-286.65549 -130.43077)"/><path fill="#fff" d="M542.32662,525.01357c-8.534-36.58965-36.93787-65.0554-72.16866-76.77414C495.84014,470.797,520.34291,499.26214,542.32662,525.01357Z" transform="translate(-286.65549 -130.43077)"/><path fill="#fff" d="M554.00094,740.00576c-.21454-70.371-6.88392-141.38952-15.69729-210.51837C532.34447,594.44426,537.85009,680.91819,554.00094,740.00576Z" transform="translate(-286.65549 -130.43077)"/><path fill="#fff" d="M423.00582,527.267c-9.51643,59.71625-6.65582,121.50167,4.18365,180.26211C430.96724,650.84413,429.95845,574.32509,423.00582,527.267Z" transform="translate(-286.65549 -130.43077)"/><path fill="#fff" d="M542.48726,525.32216c-56.02972-12.059-116.24508.60389-172.9317,2.485C426.45535,540.4312,485.88471,530.45,542.48726,525.32216Z" transform="translate(-286.65549 -130.43077)"/><path fill="#fff" d="M411.08516,473.39394c6.84025-25.7622,6.25048-53.44495-.19947-79.32075-2.66193,2.01812-9.00105,6.9971-11.74952,8.65978a48.32633,48.32633,0,0,1-7.75239,3.79727c-16.24155,1.97579-1.52447,26.33379-2.277,38.07567,7.56071,56.18971,7.34459,4.01775,6.84548-23.82932-1.48505-4.62957,4.25612-3.60779,6.64012-6.13714C407.75605,432.62941,409.38671,455.59139,411.08516,473.39394Z" transform="translate(-286.65549 -130.43077)"/><path fill="#fff" d="M498.31246,748.204c1.83179-25.85953,5.23282-52.6996,4.06622-78.0703-13.56935,2.5234-43.148,6.565-37.99334,25.7477.482,2.68564,2.09631,9.742,2.64872,12.499,5.9336,32.329,3.68966-2.80517,4.66981-17.3096a86.27109,86.27109,0,0,1,17.95625-6.41856C491.85237,702.84585,492.32111,729.98329,498.31246,748.204Z" transform="translate(-286.65549 -130.43077)"/><path fill="#fff" d="M445.25728,575.1288a237.98856,237.98856,0,0,1,55.02782-5.62717c-.17554,2.455-.015,7.147.02579,9.69114-11.41044,2.69065-29.2242,11.24793-43.15379,11.98645-6.67437-1.27824-12.83194-8.71442-9.9951-15.84544-4.45269,8.04044,2.12237,17.7727,10.22323,20.14112,14.21064-1.69138,63.22568,2.48155,55.20468-14.5762-.09118-7.68792-.21343-15.61193-.37652-23.28455C490.23383,556.81726,462.34991,564.18638,445.25728,575.1288Z" transform="translate(-286.65549 -130.43077)"/><path fill="#fff" d="M355.038,709.371c12.8737-28.52439-28.23744-63.81756-41.99756-26.77095-22.25972-3.65547-25.25334,23.28512-8.0691,33.93743-9.04416-14.5232-7.68539-26.558,11.21069-22.27163C337.64282,666.36165,348.71653,679.8295,355.038,709.371Z" transform="translate(-286.65549 -130.43077)"/><path fill="#fff" d="M650.4609,700.02577c-1.09914-48.576-51.7281-46.44243-53.46674-1.61656-17.75984.16151-11.17183,23.72427-9.89714,13.70158,2.40566-11.15665,13.77927-2.16664,19.55389.96176-4.19441-16.54435,4.46171-29.75768,18.14471-38.85738C636.39947,676.36876,646.255,689.43929,650.4609,700.02577Z" transform="translate(-286.65549 -130.43077)"/><path fill="#fff" d="M562.80416,207.8622c-16.35559-8.497-38.92736,24.9288-20.93207,28.48749-23.3473-22.24857,2.30237,21.49941,4.18154,30.93948C545.97025,248.03118,542.40524,219.17688,562.80416,207.8622Z" transform="translate(-286.65549 -130.43077)"/><path fill="#fff" d="M510.87594,367.53456c-9.57252-3.16568-26.41288-.8576-27.37282,10.85811-3.47405,4.50052-14.18152-11.27067-10.5912-1.43769C482.46012,414.888,489.80567,376.83524,510.87594,367.53456Z" transform="translate(-286.65549 -130.43077)"/><path fill="#fff" d="M877.21236,442.42812c-35.171-10.507-19.43,32.7995-35.601,9.0074-1.77755,7.88745,8.11645,23.612,13.56575,32.632C862.49712,496.2184,848.39966,451.08523,877.21236,442.42812Z" transform="translate(-286.65549 -130.43077)"/></svg>